PathFileType	4	(X/Y/Z)	s02c0401.trc
DataRate	CameraRate	NumFrames	NumMarkers	Units	OrigDataRate	OrigDataStartFrame	OrigNumFrames
200	200	4	50	mm	200	1750	2000
Frame#	Time	racr			lacr			c7			jug			rlel			rdr			llel			ldr			s2			lic			ric			lasi			rasi			rpsi			lpsi			rgt			lgt			rth1			rth2			rth3			rth4			rlfc			rmfc			rsh1			rsh2			rsh3			rsh4			rlmal			rmmal			rtoe			rmt5			rmt1			lth1			lth2			lth4			lth3			llfc			lmfc			lsh1			lsh2			lsh3			lsh4			llmal			lmmal			lcal			ltoe			lmt5			SBIKE			LBIKE			RBIKE			
		X1	Y1	Z1	X2	Y2	Z2	X3	Y3	Z3	X4	Y4	Z4	X5	Y5	Z5	X6	Y6	Z6	X7	Y7	Z7	X8	Y8	Z8	X9	Y9	Z9	X10	Y10	Z10	X11	Y11	Z11	X12	Y12	Z12	X13	Y13	Z13	X14	Y14	Z14	X15	Y15	Z15	X16	Y16	Z16	X17	Y17	Z17	X18	Y18	Z18	X19	Y19	Z19	X20	Y20	Z20	X21	Y21	Z21	X22	Y22	Z22	X23	Y23	Z23	X24	Y24	Z24	X25	Y25	Z25	X26	Y26	Z26	X27	Y27	Z27	X28	Y28	Z28	X29	Y29	Z29	X30	Y30	Z30	X31	Y31	Z31	X32	Y32	Z32	X33	Y33	Z33	X34	Y34	Z34	X35	Y35	Z35	X36	Y36	Z36	X37	Y37	Z37	X38	Y38	Z38	X39	Y39	Z39	X40	Y40	Z40	X41	Y41	Z41	X42	Y42	Z42	X43	Y43	Z43	X44	Y44	Z44	X45	Y45	Z45	X46	Y46	Z46	X47	Y47	Z47	X48	Y48	Z48	X49	Y49	Z49	X50	Y50	Z50	
1750	8.7500	799.577750	1195.193930	-146.270506	821.178693	1159.688293	-499.736740	817.167568	1234.222935	-334.862237	741.112470	1114.236450	-335.155204	615.925381	1025.145706	-34.990855	713.057686	882.961919	-124.188186	601.248776	1031.912124	-651.480304	705.916297	878.504828	-551.997406	257.938052	1163.257748	-367.852371	406.941782	1119.248171	-499.007249	370.898677	1174.249270	-219.730473	434.212589	1080.958112	-462.854657	421.195714	1135.254113	-234.693893	288.653605	1209.778506	-330.974804	305.186784	1198.570951	-413.208316	345.505898	1097.673798	-169.544824	323.234757	1036.696024	-518.632417	431.289047	1057.085610	-171.399348	515.338235	1028.600180	-181.140375	577.364600	974.512974	-158.116060	528.770327	1047.828483	-211.588231	668.818478	858.642349	-189.580643	642.974190	838.910018	-299.233112	597.641639	775.154622	-167.957810	532.772265	714.772177	-178.873438	451.911734	687.966030	-166.542079	538.514833	702.068430	-217.932001	343.421429	633.338888	-160.391784	358.061676	641.532327	-241.961997	419.388363	421.641241	-199.403777	347.226004	502.562219	-140.563243	368.253431	485.811269	-248.227135	365.714459	905.126758	-533.936587	391.066842	821.923767	-526.260876	424.501200	824.693575	-511.161195	369.769737	735.813456	-523.938600	373.228005	640.466971	-497.737937	361.954951	613.119334	-400.886901	335.354564	543.967915	-521.399832	331.441105	459.392674	-505.656123	282.151037	383.077957	-505.921858	348.468454	457.108046	-468.218588	239.841937	286.914804	-491.061418	251.336201	281.066983	-413.107349	163.574882	279.570674	-452.940754	392.498015	100.972740	-437.542147	297.224564	144.543293	-505.360128	-164.921880	857.939170	-316.165392	33.005754	81.792916	-515.346834	33.010857	82.162065	-115.226522	
1751	8.7550	798.620560	1194.436934	-143.358339	822.128223	1160.604542	-496.633594	817.159300	1234.008584	-331.353113	741.100244	1114.026445	-332.445823	614.991646	1023.881155	-33.809725	712.718380	883.120889	-124.133605	603.160811	1033.103383	-650.183729	706.083703	878.305956	-551.747014	258.388445	1165.066263	-367.933889	407.971673	1120.408890	-499.272791	370.587082	1175.711745	-220.169469	434.531431	1082.098445	-462.975793	421.045176	1136.910496	-235.096930	289.039993	1211.438239	-332.064418	305.646509	1200.300788	-414.380392	345.933335	1100.782119	-170.131511	322.857772	1038.062325	-519.083776	431.342159	1061.297802	-171.669639	515.370697	1032.897131	-181.477922	577.438373	979.022329	-158.056344	528.748449	1052.179852	-211.899940	674.098085	863.303286	-192.022306	645.804958	844.581560	-299.221944	602.006000	779.609822	-167.683502	538.649072	717.705829	-178.779993	458.308881	689.432760	-166.434401	544.583078	705.400765	-217.831155	350.232173	632.361042	-160.514714	364.513879	640.821969	-241.835681	431.161484	422.968114	-199.685430	357.077491	501.941173	-140.485367	378.430713	486.037636	-248.304358	363.868841	906.582073	-534.825410	388.111317	822.992808	-527.537438	421.586051	825.176625	-512.386330	365.596618	737.176258	-525.114348	367.831404	641.726887	-499.070136	356.594712	614.244973	-401.915947	329.084608	545.755645	-522.640378	324.775747	461.120829	-506.983830	274.403696	384.973453	-506.594662	341.891491	458.795790	-469.608327	232.712394	290.029773	-493.070886	242.691837	283.956577	-415.662261	156.695202	283.336803	-454.278216	381.596310	99.912352	-437.096422	287.532976	145.129486	-505.535715	-164.919937	857.927594	-316.170133	32.998968	81.802113	-515.351737	33.012377	82.158711	-115.230749	
1752	8.7600	797.622323	1193.378719	-140.425803	823.070829	1161.297079	-493.438831	817.217762	1233.703315	-327.855417	741.026052	1113.815219	-329.909865	613.732720	1022.405163	-33.684504	712.438893	883.250870	-124.049769	605.132797	1034.309665	-648.813996	706.170916	878.201746	-551.446563	258.747289	1167.231549	-369.276431	408.540404	1121.685064	-499.483275	370.329305	1177.422421	-220.648059	435.083380	1083.798406	-463.739958	420.896836	1138.791926	-235.462548	289.514138	1213.320231	-333.085640	305.603004	1202.718428	-414.939074	346.251152	1103.960862	-170.633104	322.551229	1040.002491	-519.735823	431.205545	1065.329038	-171.916699	515.272376	1037.040526	-181.612296	577.387805	983.483228	-157.425490	528.655778	1056.249305	-211.943780	669.874136	871.345137	-186.321263	647.959283	849.441956	-298.509189	605.982314	783.627327	-167.425085	544.063318	720.309615	-178.452025	464.255684	690.239349	-166.252901	550.304820	708.112018	-217.396713	356.415165	630.683913	-160.414183	371.904838	639.038662	-241.681970	443.242598	424.254872	-200.748589	366.135405	500.818495	-140.459758	388.369633	485.806797	-248.304873	362.249315	908.527810	-535.612576	385.606208	824.813606	-528.866197	418.959317	826.278764	-513.588764	361.867670	739.083961	-526.306919	363.135005	643.471476	-500.309377	352.122301	616.057843	-402.767299	323.452909	548.124336	-523.848741	318.667332	463.602928	-508.364815	267.730030	387.650612	-507.709572	335.883494	460.983861	-471.017196	226.445952	291.620478	-493.290283	236.241231	286.810234	-416.472135	150.075699	287.848781	-455.348459	370.832935	99.572121	-436.728957	277.897617	146.429709	-505.551151	-164.977186	857.935421	-316.132384	32.980795	81.808056	-515.346443	33.016187	82.145210	-115.216819	
1753	8.7650	796.688746	1192.092650	-137.645934	823.928083	1161.782772	-490.409631	817.379798	1233.086419	-324.312389	740.750571	1113.494933	-327.322221	612.421984	1021.157871	-32.180237	712.037308	883.351823	-123.825857	607.021191	1035.545643	-647.541525	706.273657	878.123621	-551.157757	259.140147	1169.882174	-370.317100	409.940773	1123.910649	-501.317188	370.267640	1179.419140	-220.963981	435.172874	1085.669402	-463.996975	420.741841	1140.695255	-235.706964	290.095700	1215.629476	-333.903736	306.765928	1205.045668	-415.982333	346.622280	1106.968180	-171.298083	322.147723	1042.439195	-520.754090	430.805264	1069.124646	-172.225422	514.861590	1040.731041	-181.660028	578.005498	987.493201	-157.321575	528.347944	1059.930030	-211.864445	670.138606	876.437244	-184.869503	649.265076	853.384189	-297.841124	609.252328	787.105893	-166.740418	549.964834	722.893583	-176.547964	469.590850	690.835292	-165.755217	555.415843	710.365389	-216.622594	361.984773	628.279029	-160.151524	376.254527	636.858678	-241.182708	454.418487	424.607766	-200.078425	375.333501	499.232429	-140.103186	398.035476	484.912549	-247.953659	360.842527	910.952084	-536.317951	383.435980	827.025139	-530.246898	416.822035	828.040088	-514.942196	358.646522	741.491268	-527.358686	359.261447	645.512093	-501.569408	348.806960	618.439553	-403.699140	318.543077	550.872112	-524.920282	313.161466	466.434364	-509.575905	261.509919	390.905959	-508.582340	330.645855	463.484795	-472.260347	220.099247	294.964727	-494.187901	230.327661	290.025666	-416.886272	143.832344	293.021201	-456.168384	360.073872	99.782314	-436.472360	268.310620	148.399750	-505.716137	-165.034196	857.921734	-316.148659	32.990322	81.820695	-515.350355	33.012378	82.165440	-115.223512	
